<svg viewBox="0 0 94 126" xmlns="http://www.w3.org/2000/svg">
    <g fill="#FFF" opacity=".1">
        <path d="M0 15.688716c0-.9025961.4684672-1.7321745 1.21941708-2.1593873C32.9273052-4.50917967 60.8360923-4.50917967 92.7742683 13.5257496 93.5287306 13.9517813 94 14.7833987 94 15.688716v41.1828793c0 22.650129-9.350269 43.8153787-25.6064696 57.2839667-5.9386202 5.239742-12.9639818 9.249961-20.7220847 11.739089-.4378007.140465-.9050907.140465-1.3428914 0-7.4079157-2.376773-14.3745992-6.417638-20.666805-11.691818C9.35026901 100.686974 0 79.5217243 0 56.8715953V15.688716zm4.63054187 1.4737515v39.7091278c0 21.1700778 8.71703993 40.9019518 23.89522353 53.4787987 5.6751367 4.756902 11.9021802 8.416854 18.4752063 10.631715 6.8974844-2.311251 13.1391989-5.926341 18.4834377-10.640195 15.1680088-12.5683669 23.8850487-32.3002409 23.8850487-53.4703187V17.1675212C59.7257226.8155928 34.0535698.81500783 4.63054187 17.1624675z" />
        <path d="M30.83878021 52.2239728v28.8390427H67.7951794V52.2239728H30.83878021zm-2.41545093-4.8879734H70.2106303c1.3340168 0 2.415451 1.0942101 2.415451 2.4439867v33.7270161c0 1.3497765-1.0814342 2.4439866-2.415451 2.4439866H28.42332928c-1.33401671 0-2.41545093-1.0942101-2.41545093-2.4439866V49.7799861c0-1.3497766 1.08143422-2.4439867 2.41545093-2.4439867z" />
        <path d="M39.0513134 47.3359994h20.2897878v-7.33196c0-5.6468756-4.6248034-10.26474404-10.1448939-10.26474404-5.5809432 0-10.1448939 4.67944004-10.1448939 10.26474404v7.33196zm-4.83090189 2.4439867v-9.7759467c0-8.27047113 6.71239129-15.15271738 14.97579579-15.15271738 8.1739059 0 14.9757957 6.79169038 14.9757957 15.15271738v9.7759467c0 1.3497766-1.0814342 2.4439867-2.4154509 2.4439867H36.6358624c-1.33401667 0-2.41545089-1.0942101-2.41545089-2.4439867z" />
    </g>
</svg>